<svg xmlns="http://www.w3.org/2000/svg" xmlns:xlink="http://www.w3.org/1999/xlink" version="1.1" x="0px" y="0px" viewBox="0 0 64 80" enable-background="new 0 0 64 64" xml:space="preserve"><g display="none"><rect x="63.988" y="-188.006" display="inline" fill="#000000" width="20" height="430"/><rect x="374.488" y="-437.506" transform="matrix(1.067751e-10 -1 1 1.067751e-10 310.4941 458.4824)" display="inline" fill="#000000" width="20" height="1023"/><rect x="-54.031" y="-205.674" display="inline" fill="#000000" width="947.424" height="496.184"/></g><g display="none"><g display="inline"><g><path d="M16.031,27v3.843h3.705V27h2.243v10h-2.243v-4.184h-3.705V37h-2.258V27H16.031z"/></g><g><path d="M25.712,28.899h-2.672V27h7.647v1.899h-2.716V37h-2.259V28.899z"/></g><g><path d="M40.088,33.171c-0.045-1.201-0.089-2.655-0.089-4.109h-0.043c-0.311,1.275-0.723,2.7-1.107,3.872l-1.211,3.902h-1.757     l-1.063-3.872c-0.325-1.172-0.664-2.597-0.9-3.902h-0.03c-0.059,1.35-0.102,2.892-0.177,4.139L33.534,37h-2.08l0.634-10h2.996     l0.974,3.337c0.311,1.158,0.621,2.405,0.842,3.577h0.043c0.28-1.158,0.621-2.479,0.945-3.591L38.951,27h2.938l0.546,10h-2.199     L40.088,33.171z"/></g><g><path d="M44.013,27h2.258v8.101h3.956V37h-6.213V27z"/></g></g><g display="inline"><g><g><path d="M49.621,2C52.587,2,55,4.413,55,7.379v49.241C55,59.587,52.587,62,49.621,62H14.379C11.413,62,9,59.587,9,56.621V7.379      C9,4.413,11.413,2,14.379,2H49.621 M49.621,0H14.379C10.304,0,7,3.304,7,7.379v49.241C7,60.696,10.304,64,14.379,64h35.241      C53.696,64,57,60.696,57,56.621V7.379C57,3.304,53.696,0,49.621,0L49.621,0z"/></g></g><g><line fill="none" stroke="#000000" stroke-width="2" stroke-miterlimit="10" x1="22.153" y1="0.707" x2="7.817" y2="15.046"/><line fill="none" stroke="#000000" stroke-width="2" stroke-miterlimit="10" x1="56.183" y1="48.954" x2="41.847" y2="63.293"/></g></g></g><g display="none"><g display="inline"><polygon points="19.736,30.843 16.031,30.843 16.031,27 13.773,27 13.773,37 16.031,37 16.031,32.816 19.736,32.816 19.736,37     21.98,37 21.98,27 19.736,27   "/><polygon points="23.041,28.899 25.712,28.899 25.712,37 27.971,37 27.971,28.899 30.687,28.899 30.687,27 23.041,27   "/><path d="M38.951,27l-1.063,3.323c-0.324,1.113-0.664,2.434-0.945,3.591H36.9c-0.221-1.172-0.532-2.419-0.843-3.577L35.084,27    h-2.996l-0.634,10h2.08l0.177-3.798c0.075-1.247,0.118-2.789,0.177-4.139h0.03c0.236,1.305,0.575,2.73,0.9,3.902l1.063,3.872    h1.757l1.211-3.902c0.384-1.172,0.797-2.597,1.107-3.872h0.043c0,1.454,0.045,2.908,0.089,4.109L40.236,37h2.199l-0.546-10H38.951    z"/><polygon points="46.271,27 44.013,27 44.013,37 50.227,37 50.227,35.101 46.271,35.101   "/><path d="M49.621,0H14.379C10.304,0,7,3.304,7,7.379v49.241C7,60.696,10.304,64,14.379,64h35.242C53.696,64,57,60.696,57,56.621    V7.379C57,3.304,53.696,0,49.621,0z M14.379,1h6.774L8,14.156V7.379C8,3.862,10.862,1,14.379,1z M49.621,63h-6.773L56,49.844    v6.777C56,60.138,53.138,63,49.621,63z M56,48.772l-0.171-0.171L41.494,62.939L41.555,63H14.379C10.862,63,8,60.138,8,56.621    V15.229l0.171,0.171L22.506,1.061L22.446,1h27.175C53.138,1,56,3.862,56,7.379V48.772z"/></g></g><g><g><path d="M7,7.379v7.07L21.447,0h-7.067C10.304,0,7,3.304,7,7.379z"/><path d="M49.621,64C53.696,64,57,60.696,57,56.621v-7.07L42.553,64H49.621z"/><path d="M49.621,0H24.275L7,17.277v39.344C7,60.696,10.304,64,14.379,64h25.346L57,46.723V7.379C57,3.304,53.696,0,49.621,0z     M21.98,37h-2.243v-4.184h-3.705V37h-2.258V27h2.258v3.843h3.705V27h2.243V37z M30.687,28.899h-2.716V37h-2.259v-8.101h-2.672V27    h7.647V28.899z M40.236,37l-0.148-3.828c-0.045-1.201-0.089-2.655-0.089-4.109h-0.043c-0.311,1.275-0.723,2.7-1.107,3.872    l-1.211,3.902h-1.757l-1.063-3.872c-0.325-1.172-0.664-2.597-0.9-3.902h-0.03c-0.059,1.35-0.102,2.892-0.177,4.139L33.534,37    h-2.08l0.634-10h2.996l0.974,3.337c0.311,1.158,0.621,2.405,0.843,3.577h0.043c0.28-1.158,0.621-2.479,0.945-3.591L38.951,27    h2.938l0.546,10H40.236z M50.227,37h-6.213V27h2.258v8.101h3.956V37z"/></g></g><text x="0" y="79" fill="#000000" font-size="5px" font-weight="bold" font-family="'Helvetica Neue', Helvetica, Arial-Unicode, Arial, Sans-serif">Created by Alfredo @ IconsAlfredo.com</text><text x="0" y="84" fill="#000000" font-size="5px" font-weight="bold" font-family="'Helvetica Neue', Helvetica, Arial-Unicode, Arial, Sans-serif">from the Noun Project</text></svg>