<svg width="453" height="220" viewBox="0 0 453 220" fill="none" xmlns="http://www.w3.org/2000/svg">
<path fill-rule="evenodd" clip-rule="evenodd" d="M268.796 89.3883V77.6562H273.063V90.0869C273.063 95.6413 269.373 98.4001 263.991 98.4001C258.609 98.4001 254.919 95.6413 254.919 90.0869V77.6562H259.186V89.3883C259.186 92.6904 260.762 94.6328 263.991 94.6328C267.219 94.6328 268.796 92.6904 268.796 89.3883" fill="#162056"/>
<path fill-rule="evenodd" clip-rule="evenodd" d="M291.63 81.4246C292.707 78.5886 295.589 77.3071 298.588 77.3071C303.547 77.3071 306.661 80.1045 306.661 85.3105V98.051H302.393V86.0864C302.393 83.0168 301.009 81.0744 298.049 81.0744C295.09 81.0744 293.667 82.8615 293.667 86.1259V98.051H289.477V86.1259C289.477 82.8615 288.055 81.0744 285.095 81.0744C282.135 81.0744 280.79 83.094 280.79 86.0864V98.051H276.523V85.3105C276.523 80.1045 279.637 77.3071 284.557 77.3071C287.556 77.3071 290.361 78.5886 291.477 81.4246H291.63" fill="#162056"/>
<path fill-rule="evenodd" clip-rule="evenodd" d="M319.998 81.0736C316.038 81.0736 313.462 84.1422 313.462 87.8718C313.462 91.7172 315.961 94.6323 319.998 94.6323C323.956 94.6323 326.571 91.8735 326.571 87.8718C326.571 83.8711 323.956 81.0736 319.998 81.0736ZM331.106 98.051H326.916V94.7884C325.224 97.003 322.457 98.3617 319.267 98.3617C313.5 98.3617 309.003 94.2837 309.003 87.9507C309.003 81.7354 313.615 77.3071 320.035 77.3071C326.802 77.3071 331.106 81.58 331.106 88.1456V98.051V98.051Z" fill="#162056"/>
<path fill-rule="evenodd" clip-rule="evenodd" d="M360.091 81.4246C361.167 78.5886 364.05 77.3071 367.048 77.3071C372.007 77.3071 375.12 80.1045 375.12 85.3105V98.051H370.854V86.0864C370.854 83.0168 369.47 81.0744 366.51 81.0744C363.549 81.0744 362.128 82.8615 362.128 86.1259V98.051H357.938V86.1259C357.938 82.8615 356.515 81.0744 353.557 81.0744C350.596 81.0744 349.249 83.094 349.249 86.0864V98.051H344.983V85.3105C344.983 80.1045 348.097 77.3071 353.017 77.3071C356.016 77.3071 358.823 78.5886 359.936 81.4246H360.091" fill="#162056"/>
<path fill-rule="evenodd" clip-rule="evenodd" d="M388.459 81.0736C384.5 81.0736 381.925 84.1422 381.925 87.8718C381.925 91.7172 384.422 94.6323 388.459 94.6323C392.418 94.6323 395.033 91.8735 395.033 87.8718C395.033 83.8711 392.418 81.0736 388.459 81.0736ZM399.568 98.051H395.378V94.7884C393.687 97.003 390.919 98.3617 387.728 98.3617C381.962 98.3617 377.466 94.2837 377.466 87.9507C377.466 81.7354 382.079 77.3071 388.497 77.3071C395.263 77.3071 399.568 81.58 399.568 88.1456V98.051V98.051Z" fill="#162056"/>
<path fill-rule="evenodd" clip-rule="evenodd" d="M413.487 81.58C413.256 81.5028 412.296 81.1139 411.18 81.1139C408.104 81.1139 407.298 83.0564 407.298 86.3189V98.051H403.031V85.5431C403.031 79.2873 406.491 77.3071 411.065 77.3071C412.527 77.3071 414.102 77.8118 414.41 77.889L413.487 81.58" fill="#162056"/>
<path fill-rule="evenodd" clip-rule="evenodd" d="M424.673 77.3071C426.863 77.3071 428.67 77.7723 430.4 78.6668L428.978 82.0856C427.979 81.4632 426.633 80.9586 425.172 80.9586C421.406 80.9586 418.714 83.5997 418.714 87.8339C418.714 91.7575 421.021 94.8261 425.441 94.7489C427.094 94.7102 428.402 94.2442 429.363 93.6613L429.055 97.5077C427.786 98.0905 426.172 98.4003 424.595 98.4003C418.368 98.4003 414.217 94.2442 414.217 87.8339C414.217 81.5404 418.406 77.3071 424.673 77.3071" fill="#162056"/>
<path fill-rule="evenodd" clip-rule="evenodd" d="M441.892 81.0736C437.933 81.0736 435.357 84.1422 435.357 87.8718C435.357 91.7172 437.855 94.6323 441.892 94.6323C445.851 94.6323 448.466 91.8735 448.466 87.8718C448.466 83.8711 445.851 81.0736 441.892 81.0736ZM453 98.051H448.811V94.7884C447.118 97.003 444.352 98.3617 441.161 98.3617C435.394 98.3617 430.897 94.2837 430.897 87.9507C430.897 81.7354 435.511 77.3071 441.93 77.3071C448.696 77.3071 453 81.58 453 88.1456V98.051V98.051Z" fill="#162056"/>
<path fill-rule="evenodd" clip-rule="evenodd" d="M262.068 136.025C258.07 136.025 256.109 133.539 256.109 129.849V108.6H274.753L274.062 112.484H260.723V120.449H272.678L272.024 124.178C272.024 124.178 271.102 124.178 260.723 124.178V129.072C260.723 131.519 261.799 132.141 263.259 132.141H274.523L273.831 136.025H262.068" fill="#162056"/>
<path fill-rule="evenodd" clip-rule="evenodd" d="M286.477 119.05C282.44 119.05 279.943 121.925 279.943 125.809C279.943 129.577 282.518 132.608 286.477 132.608C290.436 132.608 293.051 129.81 293.051 125.809C293.051 121.807 290.436 119.05 286.477 119.05ZM297.394 125.148C297.394 132.025 293.089 136.375 286.322 136.375C280.057 136.375 275.483 131.946 275.483 125.808C275.483 119.438 279.903 115.282 285.861 115.282C289.167 115.282 291.744 116.679 293.126 118.545V108.6H297.394V125.148V125.148Z" fill="#162056"/>
<path fill-rule="evenodd" clip-rule="evenodd" d="M304.582 123.555H316.153C315.73 120.409 313.654 118.583 310.579 118.583C307.427 118.583 305.236 120.564 304.582 123.555ZM310.504 115.282C317.231 115.282 320.805 119.943 320.766 126.741H304.583C304.929 131.054 308.234 132.917 311.733 132.917C313.424 132.917 314.886 132.568 316.23 131.792L315.961 135.444C314.616 136.065 312.848 136.375 310.926 136.375C304.467 136.375 299.971 132.142 299.971 125.654C299.971 119.632 304.314 115.282 310.504 115.282V115.282Z" fill="#162056"/>
<path fill-rule="evenodd" clip-rule="evenodd" d="M327.224 124.293V136.025H322.958V123.594C322.958 118.04 326.647 115.32 332.029 115.32C337.411 115.32 341.101 118.04 341.101 123.594V136.025H336.834V124.293C336.834 120.992 335.259 119.049 332.029 119.049C328.801 119.049 327.224 120.992 327.224 124.293" fill="#162056"/>
<path fill-rule="evenodd" clip-rule="evenodd" d="M355.017 119.555C354.787 119.477 353.827 119.089 352.711 119.089C349.636 119.089 348.828 121.031 348.828 124.294V136.026H344.562V123.518C344.562 117.262 348.021 115.282 352.595 115.282C354.057 115.282 355.632 115.786 355.94 115.864L355.017 119.555" fill="#162056"/>
<path fill-rule="evenodd" clip-rule="evenodd" d="M360.358 123.555H371.93C371.506 120.409 369.431 118.583 366.355 118.583C363.203 118.583 361.012 120.564 360.358 123.555ZM366.279 115.282C373.007 115.282 376.581 119.943 376.542 126.741H360.358C360.706 131.054 364.011 132.917 367.508 132.917C369.201 132.917 370.662 132.568 372.007 131.792L371.737 135.444C370.393 136.065 368.624 136.375 366.702 136.375C360.243 136.375 355.746 132.142 355.746 125.654C355.746 119.632 360.09 115.282 366.279 115.282V115.282Z" fill="#162056"/>
<path fill-rule="evenodd" clip-rule="evenodd" d="M388.651 119.05C384.614 119.05 382.116 121.925 382.116 125.809C382.116 129.577 384.692 132.608 388.651 132.608C392.61 132.608 395.224 129.81 395.224 125.809C395.224 121.807 392.61 119.05 388.651 119.05ZM399.568 125.148C399.568 132.025 395.263 136.375 388.497 136.375C382.232 136.375 377.658 131.946 377.658 125.808C377.658 119.438 382.078 115.282 388.035 115.282C391.341 115.282 393.917 116.679 395.301 118.545V108.6H399.568V125.148V125.148Z" fill="#162056"/>
<path fill-rule="evenodd" clip-rule="evenodd" d="M190.644 117.595H157.82C159.064 124.798 165.86 127.561 171.745 127.561C175.475 127.561 178.79 126.724 182.023 125.217L181.111 135.101C177.464 136.608 173.072 137.194 168.679 137.194C154.09 137.194 143.813 128.567 143.813 113.908C143.813 101.176 153.013 91.6279 167.104 91.6279C183.017 91.6279 190.974 101.848 190.644 117.595ZM131.296 136.358C130.633 134.766 129.638 132.17 128.81 129.574L126.903 123.124C125.908 119.689 124.582 118.266 121.349 118.266H115.879V136.358H103.197V77.2229H115.879V109.805H117.288L129.306 92.467H143.397L129.223 110.558H129.97C135.606 110.558 137.263 113.742 138.673 118.433L141.077 126.557C141.905 129.574 143.646 133.845 144.971 136.358H131.296ZM90.6828 126.556C93.9969 126.556 96.7334 125.635 98.8055 124.63L97.6446 135.268C94.9929 136.608 91.2623 137.278 88.0302 137.278C74.3534 137.278 64.9058 128.316 64.9058 114.327C64.9058 100.506 74.1885 91.6279 87.9472 91.6279C93.0028 91.6279 96.8992 92.6326 100.877 94.4762L97.23 104.359C95.3237 103.188 92.672 102.267 89.8536 102.267C82.8917 102.267 78.3328 106.873 78.3328 114.327C78.3328 121.698 83.1396 126.64 90.6828 126.556ZM48.078 86.8552H61.0075V77.2229H48.078V86.8552ZM48.078 136.356H61.0075V92.4659H48.078V136.356ZM193.381 112.653V82.8341L206.311 77.5556V93.3035H215.013L213.273 103.103H206.145V113.155C206.145 122.92 209.807 129.796 213.689 135.317C215.617 127.145 216.643 118.622 216.643 109.854C216.642 49.4167 168.16 0.421875 108.354 0.421875C59.7949 0.422817 18.7032 32.7235 4.96402 77.2223H45.2591L43.6836 88.9487H26.8586V136.357H13.0989V88.9487H2.04867C0.753574 95.7167 0.0668945 102.703 0.0668945 109.855C0.0668945 170.293 48.549 219.288 108.355 219.288C159.116 219.288 201.713 183.988 213.439 136.357H200.675C198.437 132.42 193.299 125.301 193.381 112.653V112.653Z" fill="#F72717"/>
<path fill-rule="evenodd" clip-rule="evenodd" d="M167.517 100.675C162.047 100.675 158.565 104.276 157.488 109.051H176.966C176.303 103.774 172.656 100.675 167.517 100.675" fill="#F72717"/>
<path fill-rule="evenodd" clip-rule="evenodd" d="M229.613 80.5202C229.613 81.3677 229.907 81.7066 231.164 81.7066H232.171C233.554 81.7066 234.351 80.9863 234.351 79.7999C234.351 78.1898 233.469 77.8933 232.003 77.8933H229.613V80.5202ZM233.136 75.8172C235.735 75.8172 236.909 77.7653 236.909 79.5882C236.909 81.5787 235.359 82.8922 233.766 82.9345C235.443 83.0193 235.777 85.0531 236.532 86.7903C236.743 87.214 237.119 88.019 237.371 88.2733H234.478C234.311 88.0614 234.101 87.553 233.891 86.9598C233.263 85.2226 233.053 83.7396 231.376 83.7396H230.746C229.992 83.7396 229.783 83.4006 229.615 83.104V88.23H227.099V75.8172H233.136ZM231.668 91.1965C236.656 91.1965 240.681 87.0856 240.681 82.0444C240.681 77.0032 236.656 72.8923 231.668 72.8923C226.679 72.8923 222.612 77.0032 222.612 82.0444C222.612 87.0856 226.679 91.1965 231.668 91.1965ZM231.668 70.1812C238.124 70.1812 243.407 75.5199 243.407 82.045C243.407 88.5701 238.124 93.9088 231.668 93.9088C225.211 93.9088 219.886 88.5701 219.886 82.045C219.886 75.5199 225.211 70.1812 231.668 70.1812V70.1812Z" fill="#F72717"/>
</svg>
